<svg width="190" height="108" viewBox="0 0 190 108" fill="none" xmlns="http://www.w3.org/2000/svg">
<rect width="190" height="108" rx="10" fill="#FAED00"/>
<mask id="mask0_324_27" style="mask-type:alpha" maskUnits="userSpaceOnUse" x="0" y="0" width="190" height="108">
<rect width="190" height="108" rx="10" fill="#FAED00"/>
</mask>
<g mask="url(#mask0_324_27)">
<path d="M166.808 73.1592L159.605 76.0582C155.387 77.7561 151.782 80.6923 149.266 84.4799L148.266 85.9848C140.458 97.7379 122.506 95.164 118.315 81.6904C116.838 76.9425 113.779 72.8438 109.647 70.0772L103.583 66.016C91.411 57.8652 94.0422 39.2603 107.997 34.8044L113.056 33.1888C118.24 31.5335 122.6 27.9679 125.252 23.2156C132.185 10.7877 150.565 12.4535 155.151 25.9255L155.691 27.5105C157.325 32.3109 160.555 36.4061 164.843 39.1135L169.617 42.128C181.684 49.7476 180.047 67.8303 166.808 73.1592Z" stroke="white" stroke-opacity="0.3" stroke-width="5"/>
<path d="M159.785 63.0257L149.603 67.1241C147.259 68.0674 145.256 69.6987 143.858 71.8028L140.205 77.3016C136.71 82.5632 128.673 81.4109 126.797 75.3791L125.191 70.2186C124.343 67.4903 122.585 65.1351 120.211 63.5453L111.117 57.4554C105.9 53.9622 107.028 45.9886 113.008 44.079L122.246 41.1295C125.269 40.1639 127.813 38.084 129.359 35.3119L131.929 30.7053C135.095 25.0318 143.485 25.7922 145.579 31.9424L147.648 38.0193C148.569 40.7254 150.39 43.034 152.807 44.5603L160.989 49.7266C166.16 52.9921 165.459 60.7419 159.785 63.0257Z" stroke="white" stroke-opacity="0.6" stroke-width="5"/>
<path d="M184.04 75.1322L164.427 83.0267C160.209 84.7246 156.604 87.6608 154.088 91.4484L147.191 101.829C139.034 114.106 120.283 111.418 115.904 97.3435L112.908 87.7116C111.381 82.8007 108.216 78.5613 103.943 75.6996L86.4593 63.9916C74.2876 55.8408 76.9188 37.2359 90.8734 32.78L108.559 27.1329C114.002 25.3948 118.58 21.651 121.364 16.6612L126.132 8.11511C133.517 -5.12314 153.095 -3.34873 157.981 11.0017L161.866 22.4157C163.524 27.2868 166.802 31.4423 171.153 34.1895L186.849 44.1009C198.916 51.7205 197.279 69.8032 184.04 75.1322Z" stroke="white" stroke-opacity="0.2" stroke-width="5"/>
<path d="M28.384 52.224C26.7627 52.224 25.392 51.6747 24.272 50.576C23.1627 49.4667 22.608 48.0747 22.608 46.4C22.608 44.7573 23.168 43.376 24.288 42.256C25.4187 41.136 26.8267 40.576 28.512 40.576C30.5067 40.576 32.0747 41.3653 33.216 42.944L30.944 44.704C30.2507 43.84 29.4293 43.408 28.48 43.408C27.7013 43.408 27.0613 43.696 26.56 44.272C26.0587 44.848 25.808 45.5573 25.808 46.4C25.808 47.2533 26.0587 47.968 26.56 48.544C27.0613 49.1093 27.7013 49.392 28.48 49.392C29.024 49.392 29.488 49.28 29.872 49.056C30.256 48.8213 30.6347 48.48 31.008 48.032L33.344 49.696C32.7573 50.496 32.0747 51.12 31.296 51.568C30.5173 52.0053 29.5467 52.224 28.384 52.224ZM34.5035 52V43.344H37.5435V46.56L39.8955 43.344H43.3355L40.3755 46.896L43.4155 52H40.0715L38.4235 49.232L37.5435 50.288V52H34.5035ZM44.1441 52V43.344H47.0881V47.68L49.9681 43.344H52.7681V52H49.8241V47.664L46.9441 52H44.1441ZM53.7381 53.76V49.552H54.5381C54.8048 48.784 54.9968 47.9787 55.1141 47.136C55.2421 46.2933 55.3061 45.168 55.3061 43.76V43.344H63.0181V49.552H64.0261L63.7381 53.76H61.1461V52H56.6181L56.4581 53.76H53.7381ZM57.6421 49.552H59.9621V45.76H58.2021V45.904C58.1701 47.184 57.9835 48.4 57.6421 49.552ZM64.8473 52V43.344H67.8873V46.56L70.2393 43.344H73.6793L70.7193 46.896L73.7593 52H70.4153L68.7673 49.232L67.8873 50.288V52H64.8473ZM76.9679 52.192C76.1145 52.192 75.4159 51.9573 74.8719 51.488C74.3279 51.008 74.0559 50.3413 74.0559 49.488C74.0559 48.6133 74.3599 47.9413 74.9679 47.472C75.5759 47.0027 76.4025 46.768 77.4479 46.768C78.2052 46.768 78.8985 46.88 79.5279 47.104V46.96C79.5279 46.0213 78.9519 45.552 77.7999 45.552C77.0212 45.552 76.2265 45.712 75.4159 46.032L74.7919 43.888C75.8799 43.44 77.0479 43.216 78.2959 43.216C79.7892 43.216 80.8879 43.568 81.5919 44.272C82.2105 44.88 82.5199 45.7973 82.5199 47.024V52H79.5119V51.104C78.8612 51.8293 78.0132 52.192 76.9679 52.192ZM78.0559 50.288C78.5039 50.288 78.8665 50.16 79.1439 49.904C79.4212 49.6373 79.5599 49.2907 79.5599 48.864V48.464C79.2079 48.3147 78.8132 48.24 78.3759 48.24C77.9385 48.24 77.5972 48.3413 77.3519 48.544C77.1065 48.736 76.9839 49.0027 76.9839 49.344C76.9839 49.632 77.0799 49.8613 77.2719 50.032C77.4745 50.2027 77.7359 50.288 78.0559 50.288ZM90.2955 52V43.616L88.4075 44.048L87.8155 41.648L91.0955 40.72H93.3515V52H90.2955ZM104.022 50.544C103.072 51.664 101.819 52.224 100.262 52.224C98.7042 52.224 97.4508 51.6693 96.5015 50.56C95.5628 49.44 95.0935 48.0533 95.0935 46.4C95.0935 44.768 95.5735 43.392 96.5335 42.272C97.4935 41.1413 98.7468 40.576 100.294 40.576C101.851 40.576 103.099 41.136 104.038 42.256C104.987 43.376 105.462 44.7573 105.462 46.4C105.462 48.032 104.982 49.4133 104.022 50.544ZM98.7895 48.624C99.1735 49.1893 99.6748 49.472 100.294 49.472C100.912 49.472 101.408 49.1893 101.782 48.624C102.155 48.048 102.342 47.3067 102.342 46.4C102.342 45.504 102.144 44.768 101.75 44.192C101.366 43.616 100.87 43.328 100.262 43.328C99.6428 43.328 99.1468 43.6107 98.7735 44.176C98.4002 44.7413 98.2135 45.4827 98.2135 46.4C98.2135 47.3067 98.4055 48.048 98.7895 48.624ZM107.917 52L116.557 40.8H118.717L110.077 52H107.917ZM119.133 51.28C118.589 51.8667 117.896 52.16 117.053 52.16C116.21 52.16 115.517 51.872 114.973 51.296C114.44 50.7093 114.173 49.9893 114.173 49.136C114.173 48.2933 114.44 47.584 114.973 47.008C115.506 46.4213 116.205 46.128 117.069 46.128C117.922 46.128 118.616 46.4213 119.149 47.008C119.682 47.584 119.949 48.2987 119.949 49.152C119.949 49.984 119.677 50.6933 119.133 51.28ZM116.397 50.048C116.578 50.2827 116.802 50.4 117.069 50.4C117.336 50.4 117.554 50.2827 117.725 50.048C117.906 49.8133 117.997 49.5093 117.997 49.136C117.997 48.7733 117.906 48.4747 117.725 48.24C117.554 48.0053 117.33 47.888 117.053 47.888C116.765 47.888 116.536 48.0053 116.365 48.24C116.205 48.464 116.125 48.768 116.125 49.152C116.125 49.504 116.216 49.8027 116.397 50.048ZM109.565 46.672C108.712 46.672 108.018 46.384 107.485 45.808C106.952 45.2213 106.685 44.5013 106.685 43.648C106.685 42.8053 106.952 42.096 107.485 41.52C108.018 40.9333 108.717 40.64 109.581 40.64C110.434 40.64 111.128 40.9333 111.661 41.52C112.194 42.096 112.461 42.8107 112.461 43.664C112.461 44.5067 112.189 45.2213 111.645 45.808C111.101 46.384 110.408 46.672 109.565 46.672ZM108.909 44.56C109.09 44.7947 109.314 44.912 109.581 44.912C109.848 44.912 110.066 44.7947 110.237 44.56C110.418 44.3253 110.509 44.0213 110.509 43.648C110.509 43.296 110.418 43.0027 110.237 42.768C110.056 42.5227 109.832 42.4 109.565 42.4C109.288 42.4 109.064 42.5173 108.893 42.752C108.722 42.9867 108.637 43.2907 108.637 43.664C108.637 44.0267 108.728 44.3253 108.909 44.56ZM28.708 59.568V66H26.884V63.54H24.64V66H22.816V59.568H24.64V62.04H26.884V59.568H28.708ZM32.1634 66.12C31.5314 66.12 31.0034 65.944 30.5794 65.592C30.1634 65.24 29.9554 64.752 29.9554 64.128C29.9554 63.448 30.1874 62.936 30.6514 62.592C31.1234 62.248 31.7554 62.076 32.5474 62.076C33.0834 62.076 33.6074 62.164 34.1194 62.34V62.232C34.1194 61.448 33.6594 61.056 32.7394 61.056C32.1874 61.056 31.5954 61.172 30.9634 61.404L30.5074 60.012C31.2914 59.668 32.1234 59.496 33.0034 59.496C33.9714 59.496 34.6954 59.736 35.1754 60.216C35.6394 60.68 35.8714 61.364 35.8714 62.268V66H34.1074V65.304C33.6194 65.848 32.9714 66.12 32.1634 66.12ZM32.7154 64.86C33.1394 64.86 33.4834 64.756 33.7474 64.548C34.0114 64.332 34.1434 64.06 34.1434 63.732V63.408C33.7994 63.248 33.4114 63.168 32.9794 63.168C32.5794 63.168 32.2674 63.248 32.0434 63.408C31.8274 63.56 31.7194 63.784 31.7194 64.08C31.7194 64.32 31.8114 64.512 31.9954 64.656C32.1794 64.792 32.4194 64.86 32.7154 64.86ZM46.6787 65.172C46.0147 65.82 45.1867 66.144 44.1947 66.144C43.2027 66.144 42.3747 65.824 41.7107 65.184C41.0547 64.536 40.7267 63.74 40.7267 62.796C40.7267 61.86 41.0587 61.068 41.7227 60.42C42.3947 59.772 43.2267 59.448 44.2187 59.448C45.2107 59.448 46.0347 59.772 46.6907 60.42C47.3547 61.06 47.6867 61.852 47.6867 62.796C47.6867 63.732 47.3507 64.524 46.6787 65.172ZM44.2187 64.572C44.7227 64.572 45.1267 64.404 45.4307 64.068C45.7347 63.724 45.8867 63.3 45.8867 62.796C45.8867 62.308 45.7267 61.892 45.4067 61.548C45.0947 61.196 44.6907 61.02 44.1947 61.02C43.6907 61.02 43.2867 61.192 42.9827 61.536C42.6787 61.872 42.5267 62.292 42.5267 62.796C42.5267 63.284 42.6827 63.704 42.9947 64.056C43.3147 64.4 43.7227 64.572 44.2187 64.572ZM52.2114 64.572C52.6674 64.572 53.0394 64.416 53.3274 64.104C53.6154 63.784 53.7594 63.388 53.7594 62.916C53.7594 62.452 53.6074 62.056 53.3034 61.728C53.0074 61.4 52.6354 61.236 52.1874 61.236C51.7314 61.236 51.3594 61.4 51.0714 61.728C50.7834 62.048 50.6394 62.444 50.6394 62.916C50.6394 63.38 50.7874 63.772 51.0834 64.092C51.3874 64.412 51.7634 64.572 52.2114 64.572ZM52.1874 66.144C51.0994 66.144 50.2674 65.816 49.6914 65.16C49.1154 64.496 48.8274 63.544 48.8274 62.304C48.8274 61.864 48.8434 61.476 48.8754 61.14C48.9074 60.796 48.9754 60.432 49.0794 60.048C49.1914 59.664 49.3394 59.336 49.5234 59.064C49.7154 58.792 49.9794 58.548 50.3154 58.332C50.6594 58.116 51.0634 57.964 51.5274 57.876L54.9714 57.24L55.2594 58.68L51.7314 59.376C50.7554 59.576 50.2354 60.08 50.1714 60.888C50.3234 60.624 50.6034 60.38 51.0114 60.156C51.4194 59.924 51.9194 59.808 52.5114 59.808C53.3434 59.808 54.0594 60.104 54.6594 60.696C55.2594 61.288 55.5594 62.02 55.5594 62.892C55.5594 63.796 55.2394 64.564 54.5994 65.196C53.9594 65.828 53.1554 66.144 52.1874 66.144ZM56.859 67.92V59.568H58.683V60.492C59.195 59.796 59.863 59.448 60.687 59.448C61.487 59.448 62.175 59.748 62.751 60.348C63.327 60.948 63.615 61.764 63.615 62.796C63.615 63.82 63.327 64.632 62.751 65.232C62.183 65.824 61.495 66.12 60.687 66.12C59.887 66.12 59.219 65.8 58.683 65.16V67.92H56.859ZM59.103 64.08C59.407 64.408 59.779 64.572 60.219 64.572C60.659 64.572 61.031 64.408 61.335 64.08C61.639 63.744 61.791 63.308 61.791 62.772C61.791 62.252 61.639 61.828 61.335 61.5C61.031 61.164 60.659 60.996 60.219 60.996C59.779 60.996 59.407 61.164 59.103 61.5C58.807 61.828 58.659 62.26 58.659 62.796C58.659 63.316 58.807 63.744 59.103 64.08ZM66.7806 66.12C66.1486 66.12 65.6206 65.944 65.1966 65.592C64.7806 65.24 64.5726 64.752 64.5726 64.128C64.5726 63.448 64.8046 62.936 65.2686 62.592C65.7406 62.248 66.3726 62.076 67.1646 62.076C67.7006 62.076 68.2246 62.164 68.7366 62.34V62.232C68.7366 61.448 68.2766 61.056 67.3566 61.056C66.8046 61.056 66.2126 61.172 65.5806 61.404L65.1246 60.012C65.9086 59.668 66.7406 59.496 67.6206 59.496C68.5886 59.496 69.3126 59.736 69.7926 60.216C70.2566 60.68 70.4886 61.364 70.4886 62.268V66H68.7246V65.304C68.2366 65.848 67.5886 66.12 66.7806 66.12ZM67.3326 64.86C67.7566 64.86 68.1006 64.756 68.3646 64.548C68.6286 64.332 68.7606 64.06 68.7606 63.732V63.408C68.4166 63.248 68.0286 63.168 67.5966 63.168C67.1966 63.168 66.8846 63.248 66.6606 63.408C66.4446 63.56 66.3366 63.784 66.3366 64.08C66.3366 64.32 66.4286 64.512 66.6126 64.656C66.7966 64.792 67.0366 64.86 67.3326 64.86ZM77.0862 59.568V61.128H75.1782V66H73.3302V61.128H71.4222V59.568H77.0862ZM83.9736 59.568V66H82.1496V63.54H79.9056V66H78.0816V59.568H79.9056V62.04H82.1496V59.568H83.9736ZM85.6051 66V59.568H87.4291V61.692H88.7491C89.5251 61.692 90.1451 61.872 90.6091 62.232C91.0811 62.592 91.3171 63.12 91.3171 63.816C91.3171 64.496 91.0971 65.032 90.6571 65.424C90.2251 65.808 89.6211 66 88.8451 66H85.6051ZM88.5691 63.072H87.4291V64.56H88.5811C89.1811 64.56 89.4811 64.304 89.4811 63.792C89.4811 63.568 89.4011 63.392 89.2411 63.264C89.0891 63.136 88.8651 63.072 88.5691 63.072ZM92.1691 66V59.568H93.9931V66H92.1691ZM101.613 59.568V66H99.8486V62.256L97.3406 66H95.6246V59.568H97.3886V63.324L99.8966 59.568H101.613ZM100.029 58.476C99.6766 58.796 99.2246 58.956 98.6726 58.956C98.1206 58.956 97.6646 58.796 97.3046 58.476C96.9526 58.156 96.7366 57.708 96.6566 57.132L97.7246 56.94C97.8926 57.476 98.2086 57.744 98.6726 57.744C99.1366 57.744 99.4526 57.476 99.6206 56.94L100.689 57.132C100.609 57.708 100.389 58.156 100.029 58.476ZM111.867 59.568V61.128H109.959V66H108.111V61.128H106.203V59.568H111.867ZM112.863 67.92V59.568H114.687V60.492C115.199 59.796 115.867 59.448 116.691 59.448C117.491 59.448 118.179 59.748 118.755 60.348C119.331 60.948 119.619 61.764 119.619 62.796C119.619 63.82 119.331 64.632 118.755 65.232C118.187 65.824 117.499 66.12 116.691 66.12C115.891 66.12 115.223 65.8 114.687 65.16V67.92H112.863ZM115.107 64.08C115.411 64.408 115.783 64.572 116.223 64.572C116.663 64.572 117.035 64.408 117.339 64.08C117.643 63.744 117.795 63.308 117.795 62.772C117.795 62.252 117.643 61.828 117.339 61.5C117.035 61.164 116.663 60.996 116.223 60.996C115.783 60.996 115.411 61.164 115.107 61.5C114.811 61.828 114.663 62.26 114.663 62.796C114.663 63.316 114.811 63.744 115.107 64.08ZM122.785 66.12C122.153 66.12 121.625 65.944 121.201 65.592C120.785 65.24 120.577 64.752 120.577 64.128C120.577 63.448 120.809 62.936 121.273 62.592C121.745 62.248 122.377 62.076 123.169 62.076C123.705 62.076 124.229 62.164 124.741 62.34V62.232C124.741 61.448 124.281 61.056 123.361 61.056C122.809 61.056 122.217 61.172 121.585 61.404L121.129 60.012C121.913 59.668 122.745 59.496 123.625 59.496C124.593 59.496 125.317 59.736 125.797 60.216C126.261 60.68 126.493 61.364 126.493 62.268V66H124.729V65.304C124.241 65.848 123.593 66.12 122.785 66.12ZM123.337 64.86C123.761 64.86 124.105 64.756 124.369 64.548C124.633 64.332 124.765 64.06 124.765 63.732V63.408C124.421 63.248 124.033 63.168 123.601 63.168C123.201 63.168 122.889 63.248 122.665 63.408C122.449 63.56 122.341 63.784 122.341 64.08C122.341 64.32 122.433 64.512 122.617 64.656C122.801 64.792 123.041 64.86 123.337 64.86ZM133.954 59.568V66H132.13V63.54H129.886V66H128.062V59.568H129.886V62.04H132.13V59.568H133.954ZM138.622 66.144C137.662 66.144 136.862 65.82 136.222 65.172C135.59 64.524 135.274 63.732 135.274 62.796C135.274 61.868 135.594 61.08 136.234 60.432C136.874 59.776 137.678 59.448 138.646 59.448C139.678 59.448 140.53 59.824 141.202 60.576L140.134 61.656C139.686 61.232 139.186 61.02 138.634 61.02C138.186 61.02 137.814 61.192 137.518 61.536C137.222 61.88 137.074 62.3 137.074 62.796C137.074 63.3 137.222 63.724 137.518 64.068C137.822 64.404 138.218 64.572 138.706 64.572C139.21 64.572 139.702 64.344 140.182 63.888L141.25 64.968C140.898 65.352 140.522 65.644 140.122 65.844C139.722 66.044 139.222 66.144 138.622 66.144ZM148.741 61.02C148.501 61.02 148.241 61.124 147.961 61.332V64.272C148.217 64.464 148.477 64.56 148.741 64.56C149.181 64.56 149.517 64.404 149.749 64.092C149.989 63.78 150.109 63.348 150.109 62.796C150.109 62.26 149.989 61.832 149.749 61.512C149.509 61.184 149.173 61.02 148.741 61.02ZM147.961 67.92H146.125V65.568C145.989 65.712 145.797 65.836 145.549 65.94C145.301 66.036 145.037 66.084 144.757 66.084C143.981 66.084 143.353 65.792 142.873 65.208C142.393 64.624 142.153 63.82 142.153 62.796C142.153 61.772 142.393 60.968 142.873 60.384C143.353 59.792 143.985 59.496 144.769 59.496C145.041 59.496 145.301 59.556 145.549 59.676C145.797 59.796 145.989 59.936 146.125 60.096V57.6H147.961V60.096C148.097 59.936 148.289 59.796 148.537 59.676C148.785 59.556 149.045 59.496 149.317 59.496C150.101 59.496 150.733 59.792 151.213 60.384C151.693 60.968 151.933 61.772 151.933 62.796C151.933 63.82 151.693 64.624 151.213 65.208C150.733 65.792 150.105 66.084 149.329 66.084C149.049 66.084 148.785 66.036 148.537 65.94C148.289 65.836 148.097 65.712 147.961 65.568V67.92ZM145.345 61.02C144.913 61.02 144.577 61.184 144.337 61.512C144.097 61.832 143.977 62.26 143.977 62.796C143.977 63.348 144.093 63.78 144.325 64.092C144.565 64.404 144.905 64.56 145.345 64.56C145.609 64.56 145.869 64.464 146.125 64.272V61.332C145.845 61.124 145.585 61.02 145.345 61.02ZM156.329 66.144C155.353 66.144 154.549 65.836 153.917 65.22C153.285 64.596 152.969 63.788 152.969 62.796C152.969 61.86 153.269 61.068 153.869 60.42C154.469 59.772 155.229 59.448 156.149 59.448C157.165 59.448 157.941 59.784 158.477 60.456C159.013 61.128 159.281 61.956 159.281 62.94C159.281 63.036 159.273 63.196 159.257 63.42H154.781C154.869 63.828 155.049 64.14 155.321 64.356C155.593 64.572 155.937 64.68 156.353 64.68C156.921 64.68 157.441 64.46 157.913 64.02L158.957 64.944C158.309 65.744 157.433 66.144 156.329 66.144ZM154.757 62.28H157.505C157.449 61.864 157.301 61.532 157.061 61.284C156.829 61.036 156.525 60.912 156.149 60.912C155.781 60.912 155.473 61.036 155.225 61.284C154.985 61.524 154.829 61.856 154.757 62.28ZM160.64 67.92V59.568H162.464V60.492C162.976 59.796 163.644 59.448 164.468 59.448C165.268 59.448 165.956 59.748 166.532 60.348C167.108 60.948 167.396 61.764 167.396 62.796C167.396 63.82 167.108 64.632 166.532 65.232C165.964 65.824 165.276 66.12 164.468 66.12C163.668 66.12 163 65.8 162.464 65.16V67.92H160.64ZM162.884 64.08C163.188 64.408 163.56 64.572 164 64.572C164.44 64.572 164.812 64.408 165.116 64.08C165.42 63.744 165.572 63.308 165.572 62.772C165.572 62.252 165.42 61.828 165.116 61.5C164.812 61.164 164.44 60.996 164 60.996C163.56 60.996 163.188 61.164 162.884 61.5C162.588 61.828 162.44 62.26 162.44 62.796C162.44 63.316 162.588 63.744 162.884 64.08Z" fill="#393939"/>
</g>
</svg>
