<svg width="753" height="753" fill="none" xmlns="http://www.w3.org/2000/svg"><path d="M517.439 379.499c11.974 7.765 10.119 25.826-3.184 30.995l-85.542 33.238a22.5 22.5 0 00-10.441 8.296l-43.387 63.626c-8.304 12.178-27.022 9.263-31.23-4.863l-20.847-69.984a22.501 22.501 0 00-8.82-12.119l-78.283-53.803c-12.073-8.297-9.217-26.869 4.79-31.156l86.799-26.566a22.494 22.494 0 0012.93-10.316l38.026-66.265c7.545-13.149 27.1-11.138 31.812 3.27l24.926 76.225a22.498 22.498 0 009.144 11.886l73.307 47.536z" stroke="#fff" stroke-opacity=".3" stroke-width="5"/><path d="M468.943 382.026c5.132 3.328 4.337 11.069-1.364 13.284l-59.854 23.256a12.498 12.498 0 00-5.8 4.609l-31.13 45.651c-3.559 5.219-11.581 3.97-13.385-2.084l-15.085-50.643a12.5 12.5 0 00-4.9-6.733l-54.955-37.769c-5.174-3.556-3.95-11.516 2.053-13.353l61.316-18.766a12.499 12.499 0 007.183-5.732l27.616-48.124c3.233-5.635 11.614-4.773 13.633 1.402l17.959 54.917a12.495 12.495 0 005.08 6.603l51.633 33.482z" stroke="#fff" stroke-opacity=".6" stroke-width="5"/><path d="M561.892 385.133c11.975 7.765 10.12 25.827-3.183 30.995l-117.758 45.755a22.499 22.499 0 00-10.44 8.297l-61.183 89.722c-8.304 12.178-27.022 9.263-31.23-4.863l-29.639-99.5a22.501 22.501 0 00-8.82-12.119l-108.105-74.298c-12.072-8.297-9.216-26.869 4.791-31.156l120.586-36.906a22.505 22.505 0 0012.93-10.317l54.249-94.538c7.545-13.148 27.1-11.137 31.812 3.271l35.289 107.917a22.505 22.505 0 009.144 11.885l101.557 65.855z" stroke="#fff" stroke-opacity=".2" stroke-width="5"/></svg>