<svg width="344" height="588" fill="none" xmlns="http://www.w3.org/2000/svg"><path d="M395.527 322.574l-57.857 23.149a22.415 22.415 0 00-10.339 8.398l-27.789 41.774c-8.144 12.242-26.858 9.534-31.263-4.524l-14.035-44.791a22.577 22.577 0 00-8.995-12.017l-53.439-35.739c-12.207-8.164-9.595-26.806 4.375-31.235l57.848-18.34a22.417 22.417 0 0012.802-10.444l23.737-42.52c7.373-13.207 26.913-11.412 31.826 2.923l16.849 49.158a22.586 22.586 0 009.313 11.777l49.74 31.373c12.101 7.632 10.483 25.754-2.773 31.058z" stroke="#fff" stroke-opacity=".3" stroke-width="5"/><path d="M362.574 309.466l-42.297 16.923a12.457 12.457 0 00-5.744 4.666l-21.17 31.824c-3.49 5.246-11.51 4.086-13.398-1.94l-10.854-34.638a12.552 12.552 0 00-4.997-6.677l-39.278-26.268c-5.232-3.498-4.112-11.488 1.875-13.386l42.96-13.62a12.453 12.453 0 007.113-5.802l18.476-33.096c3.159-5.66 11.534-4.891 13.639 1.253l12.929 37.721a12.55 12.55 0 005.174 6.543l36.761 23.186c5.186 3.271 4.492 11.038-1.189 13.311z" stroke="#fff" stroke-opacity=".6" stroke-width="5"/><path d="M430.562 326.63l-83.068 33.236a22.422 22.422 0 00-10.339 8.398l-41.509 62.399c-8.144 12.242-26.858 9.534-31.263-4.524l-21.271-67.88a22.57 22.57 0 00-8.994-12.017l-77.123-51.578c-12.206-8.163-9.594-26.806 4.376-31.235l84.319-26.732a22.417 22.417 0 0012.802-10.444l36.198-64.84c7.372-13.207 26.912-11.412 31.826 2.923l25.343 73.943a22.58 22.58 0 009.313 11.776l72.164 45.517c12.101 7.633 10.482 25.754-2.774 31.058z" stroke="#fff" stroke-opacity=".2" stroke-width="5"/></svg>