<svg width="549" height="683" fill="none" xmlns="http://www.w3.org/2000/svg"><path d="M133.654 184.563c1.316-14.211 18.173-20.956 28.928-11.575l87.727 76.518a22.507 22.507 0 0012.196 5.394l98.863 11.473c14.641 1.699 20.752 19.63 10.196 29.917l-68.021 66.283a22.498 22.498 0 00-6.638 13.439l-14.363 119.925c-1.742 14.545-19.515 20.641-29.817 10.226l-81.548-82.441a22.5 22.5 0 00-15.141-6.661l-99.563-3.787c-15.149-.576-22.45-18.828-11.877-29.692l72.508-74.506a22.503 22.503 0 006.28-13.617l10.27-110.896z" stroke="#fff" stroke-opacity=".3" stroke-width="5"/><path d="M162.533 237.342c.564-6.091 7.789-8.981 12.398-4.961l60.158 52.471a12.499 12.499 0 006.775 2.996l69.059 8.015c6.275.728 8.894 8.413 4.369 12.821l-47.808 46.587a12.509 12.509 0 00-3.688 7.467l-9.873 82.438c-.746 6.234-8.364 8.846-12.779 4.383l-56.318-56.936a12.505 12.505 0 00-8.412-3.7l-70.158-2.668c-6.493-.247-9.621-8.07-5.09-12.726l50.801-52.201a12.503 12.503 0 003.489-7.565l7.077-76.421z" stroke="#fff" stroke-opacity=".6" stroke-width="5"/><path d="M115.186 135.03c1.316-14.21 18.174-20.955 28.929-11.574L262.57 226.775a22.507 22.507 0 0012.196 5.394l135.876 15.769c14.642 1.699 20.753 19.63 10.196 29.917l-94.042 91.639a22.497 22.497 0 00-6.637 13.439L300.72 545.244c-1.742 14.545-19.516 20.641-29.818 10.226L160.04 443.393a22.498 22.498 0 00-15.141-6.66L6.908 431.484c-15.148-.576-22.449-18.828-11.876-29.692l99.942-102.696a22.498 22.498 0 006.279-13.618l13.933-150.448z" stroke="#fff" stroke-opacity=".2" stroke-width="5"/></svg>