<svg width="801" height="1018" fill="none" xmlns="http://www.w3.org/2000/svg"><path d="M262.022 284.507c5.304-13.249 23.384-14.919 31.026-2.867l84.285 132.927a22.5 22.5 0 0010.158 8.64l125.957 53.846c13.553 5.794 14.311 24.723 1.264 31.581l-116.393 61.191a22.502 22.502 0 00-10.186 10.995l-64.896 150.282c-5.807 13.448-24.581 14.236-31.494 1.321L217.24 593.248a22.5 22.5 0 00-12.621-10.692l-130.988-44.35c-14.359-4.861-16.166-24.436-2.94-31.844l125.206-70.124a22.495 22.495 0 009.894-11.269l56.231-140.462z" stroke="#fff" stroke-opacity=".3" stroke-width="5"/><path d="M276.056 362.818c2.273-5.679 10.021-6.395 13.296-1.229l56.656 89.351a12.492 12.492 0 005.643 4.8l85.752 36.659c5.809 2.483 6.134 10.596.542 13.535l-79.571 41.833a12.494 12.494 0 00-5.659 6.108l-43.697 101.19c-2.489 5.764-10.535 6.102-13.498.567l-50.328-94.015a12.502 12.502 0 00-7.011-5.94l-89.705-30.372c-6.154-2.083-6.928-10.473-1.26-13.647l85.415-47.839a12.5 12.5 0 005.497-6.26l37.928-94.741z" stroke="#fff" stroke-opacity=".6" stroke-width="5"/><path d="M257.492 218.4c5.304-13.249 23.383-14.92 31.026-2.867l111.653 176.09a22.5 22.5 0 0010.158 8.64l168.905 72.206c13.553 5.794 14.311 24.723 1.265 31.582l-156.703 82.382a22.497 22.497 0 00-10.187 10.996L327.5 796.835c-5.808 13.448-24.581 14.236-31.495 1.321l-99.163-185.24a22.503 22.503 0 00-12.621-10.693L7.576 542.416c-14.358-4.862-16.165-24.437-2.939-31.845l168.225-94.218a22.493 22.493 0 009.894-11.268L257.492 218.4z" stroke="#fff" stroke-opacity=".2" stroke-width="5"/></svg>