<svg width="625" height="676" fill="none" xmlns="http://www.w3.org/2000/svg"><path d="M314.039 201.453c5.304-13.249 23.384-14.92 31.026-2.867l47.831 75.435a22.507 22.507 0 0010.158 8.64l68.752 29.391c13.553 5.794 14.311 24.722 1.264 31.581l-62.701 32.964a22.49 22.49 0 00-10.186 10.996l-36.641 84.849c-5.807 13.448-24.581 14.236-31.494 1.321l-41.658-77.818a22.5 22.5 0 00-12.621-10.692l-70.175-23.76c-14.359-4.861-16.165-24.436-2.939-31.844l67.906-38.033a22.493 22.493 0 009.894-11.268l31.584-78.895z" stroke="#fff" stroke-opacity=".3" stroke-width="5"/><path d="M325.801 247.37c2.273-5.678 10.022-6.394 13.297-1.229l33.554 52.919a12.503 12.503 0 005.643 4.8l49.501 21.162c5.809 2.483 6.133 10.595.542 13.534l-45.547 23.945a12.504 12.504 0 00-5.659 6.109l-25.791 59.725c-2.489 5.764-10.535 6.101-13.498.567L308.33 373.77a12.499 12.499 0 00-7.012-5.941l-51.166-17.324c-6.154-2.083-6.928-10.472-1.26-13.647l49.104-27.502a12.493 12.493 0 005.496-6.26l22.309-55.726z" stroke="#fff" stroke-opacity=".6" stroke-width="5"/><path d="M311.03 157.548c5.304-13.249 23.384-14.92 31.026-2.867l66.008 104.102a22.507 22.507 0 0010.158 8.64l97.276 41.585c13.553 5.794 14.31 24.722 1.264 31.581l-89.473 47.038a22.497 22.497 0 00-10.187 10.996l-50.729 117.475c-5.807 13.448-24.581 14.236-31.494 1.322l-58.036-108.412a22.495 22.495 0 00-12.621-10.693l-100.497-34.026c-14.359-4.862-16.166-24.437-2.94-31.844l96.478-54.035a22.502 22.502 0 009.894-11.268l43.873-109.594z" stroke="#fff" stroke-opacity=".2" stroke-width="5"/></svg>