<svg width="200" height="343" viewBox="0 0 200 343" fill="none" xmlns="http://www.w3.org/2000/svg">
<path d="M175.949 87.093C183.806 75.179 201.852 77.1729 206.919 90.5147L225.558 139.601C227.172 143.852 230.036 147.515 233.773 150.105L267.573 173.536C279.686 181.934 276.627 200.629 262.469 204.728L225.935 215.306C220.995 216.736 216.694 219.816 213.748 224.032L182.89 268.199C174.5 280.207 155.951 277.208 151.772 263.169L137.328 214.643C135.698 209.166 132.045 204.515 127.111 201.634L93.1183 181.778C80.0286 174.132 82.1897 154.593 96.6338 149.992L136.953 137.15C141.856 135.589 146.076 132.394 148.909 128.098L175.949 87.093Z" stroke="white" stroke-opacity="0.6" stroke-width="5"/>
<path d="M180.558 117.02C183.925 111.914 191.66 112.768 193.831 118.486L207.793 155.255C208.689 157.616 210.281 159.651 212.357 161.09L239.078 179.614C244.269 183.213 242.958 191.225 236.891 192.982L207.431 201.511C204.687 202.306 202.297 204.017 200.661 206.359L177.39 239.666C173.795 244.812 165.845 243.527 164.054 237.51L153.018 200.434C152.112 197.392 150.083 194.808 147.342 193.207L119.696 177.058C114.086 173.782 115.012 165.408 121.203 163.436L153.383 153.186C156.107 152.319 158.451 150.544 160.025 148.157L180.558 117.02Z" stroke="white" stroke-opacity="0.8" stroke-width="5"/>
<path d="M180.213 55.4062C188.07 43.4921 206.116 45.4861 211.183 58.8279L238.576 130.969C240.19 135.22 243.055 138.882 246.792 141.473L299.113 177.744C311.226 186.142 308.167 204.837 294.009 208.936L236.368 225.625C231.428 227.055 227.127 230.134 224.181 234.35L178.536 299.682C170.146 311.691 151.597 308.692 147.418 294.652L125.781 221.963C124.15 216.487 120.498 211.835 115.564 208.954L61.4878 177.367C48.3981 169.721 50.5591 150.182 65.0033 145.582L127.992 125.519C132.895 123.957 137.114 120.763 139.947 116.467L180.213 55.4062Z" stroke="white" stroke-opacity="0.2" stroke-width="5"/>
</svg>
