<svg width="174" height="279" viewBox="0 0 174 279" fill="none" xmlns="http://www.w3.org/2000/svg">
<path d="M8.75003 85.1929C12.2837 71.366 29.9918 67.3552 39.1384 78.3102L57.0586 99.7734C59.973 103.264 63.8766 105.789 68.2549 107.017L86.255 112.065C100.447 116.045 103.663 134.713 91.621 143.213L78.4159 152.532C74.2139 155.498 71.1549 159.814 69.7481 164.761L62.04 191.867C58.0332 205.957 39.522 209.182 30.9857 197.278L16.1051 176.526C12.7754 171.882 7.80388 168.679 2.19929 167.567L-13.7074 164.411C-28.5766 161.461 -32.917 142.288 -20.7681 133.221L-5.83334 122.075C-1.70958 118.998 1.23475 114.6 2.50882 109.614L8.75003 85.1929Z" stroke="white" stroke-opacity="0.6" stroke-width="5"/>
<path d="M20.5501 100.499C22.0646 94.5727 29.6538 92.8538 33.5737 97.5488L48.8113 115.799C50.4304 117.738 52.5991 119.141 55.0315 119.823L72.6504 124.764C78.7327 126.47 80.1111 134.471 74.9501 138.113L61.217 147.806C58.8825 149.453 57.183 151.851 56.4015 154.599L49.7425 178.016C48.0253 184.054 40.092 185.437 36.4335 180.335L23.158 161.821C21.3082 159.242 18.5463 157.462 15.4326 156.844L-1.58189 153.468C-7.95442 152.204 -9.81458 143.987 -4.60793 140.101L10.4324 128.877C12.7234 127.167 14.3591 124.724 15.0669 121.954L20.5501 100.499Z" stroke="white" stroke-opacity="0.8" stroke-width="5"/>
<path d="M4.01561 61.7174C7.54928 47.8905 25.2574 43.8797 34.404 54.8347L64.1626 90.4768C67.077 93.9673 70.9805 96.4929 75.3589 97.7207L109.613 107.326C123.805 111.306 127.021 129.975 114.979 138.474L88.3264 157.285C84.1245 160.25 81.0654 164.566 79.6587 169.513L66.6609 215.22C62.654 229.31 44.1429 232.536 35.6066 220.631L9.72174 184.533C6.39209 179.889 1.42052 176.687 -4.18408 175.575L-37.1787 169.028C-52.0479 166.077 -56.3882 146.904 -44.2394 137.838L-15.0233 116.034C-10.8995 112.956 -7.95521 108.558 -6.68113 103.573L4.01561 61.7174Z" stroke="white" stroke-opacity="0.2" stroke-width="5"/>
</svg>
