<svg width="190" height="108" fill="none" xmlns="http://www.w3.org/2000/svg"><rect width="190" height="108" rx="10" fill="#FAED00"/><mask id="a" style="mask-type:alpha" maskUnits="userSpaceOnUse" x="0" y="0" width="190" height="108"><rect width="190" height="108" rx="10" fill="#FAED00"/></mask><g mask="url(#a)"><path d="M166.808 73.16l-7.203 2.898a22.498 22.498 0 00-10.339 8.422l-1 1.505c-7.808 11.753-25.76 9.179-29.951-4.295a21.751 21.751 0 00-8.668-11.613l-6.064-4.061c-12.172-8.15-9.54-26.756 4.414-31.212l5.059-1.615a21.432 21.432 0 0012.196-9.973c6.933-12.428 25.313-10.763 29.899 2.71l.54 1.585a22.171 22.171 0 009.152 11.603l4.774 3.014c12.067 7.62 10.43 25.702-2.809 31.031z" stroke="#fff" stroke-opacity=".3" stroke-width="5"/><path d="M159.785 63.026l-10.182 4.098a12.5 12.5 0 00-5.745 4.679l-3.653 5.499c-3.495 5.261-11.532 4.109-13.408-1.923l-1.606-5.16a12.496 12.496 0 00-4.98-6.674l-9.094-6.09c-5.217-3.493-4.089-11.466 1.891-13.376l9.238-2.95a12.5 12.5 0 007.113-5.817l2.57-4.607c3.166-5.673 11.556-4.913 13.65 1.237l2.069 6.077a12.5 12.5 0 005.159 6.541l8.182 5.167c5.171 3.265 4.47 11.015-1.204 13.299z" stroke="#fff" stroke-opacity=".6" stroke-width="5"/><path d="M184.04 75.132l-19.613 7.895a22.498 22.498 0 00-10.339 8.421l-6.897 10.381c-8.157 12.277-26.908 9.589-31.287-4.485l-2.996-9.632a22.499 22.499 0 00-8.965-12.012L86.459 63.992c-12.171-8.151-9.54-26.756 4.414-31.212l17.686-5.647a22.501 22.501 0 0012.805-10.472l4.768-8.546c7.385-13.238 26.963-11.464 31.849 2.887l3.885 11.414a22.498 22.498 0 009.287 11.774l15.696 9.91c12.067 7.62 10.43 25.703-2.809 31.032z" stroke="#fff" stroke-opacity=".2" stroke-width="5"/><path d="M28.384 52.224c-1.621 0-2.992-.55-4.112-1.648-1.11-1.11-1.664-2.501-1.664-4.176 0-1.643.56-3.024 1.68-4.144 1.13-1.12 2.539-1.68 4.224-1.68 1.995 0 3.563.79 4.704 2.368l-2.272 1.76c-.693-.864-1.515-1.296-2.464-1.296-.779 0-1.419.288-1.92.864-.501.576-.752 1.285-.752 2.128 0 .853.25 1.568.752 2.144.501.565 1.141.848 1.92.848.544 0 1.008-.112 1.392-.336.384-.235.763-.576 1.136-1.024l2.336 1.664c-.587.8-1.27 1.424-2.048 1.872-.779.437-1.75.656-2.912.656zm6.12-.224v-8.656h3.04v3.216l2.352-3.216h3.44l-2.96 3.552L43.416 52h-3.344l-1.649-2.768-.88 1.056V52h-3.04zm9.64 0v-8.656h2.944v4.336l2.88-4.336h2.8V52h-2.944v-4.336L46.944 52h-2.8zm9.594 1.76v-4.208h.8a12.62 12.62 0 00.576-2.416c.128-.843.192-1.968.192-3.376v-.416h7.712v6.208h1.008l-.288 4.208h-2.592V52h-4.528l-.16 1.76h-2.72zm3.904-4.208h2.32V45.76h-1.76v.144a14.018 14.018 0 01-.56 3.648zM64.847 52v-8.656h3.04v3.216l2.352-3.216h3.44l-2.96 3.552L73.76 52h-3.344l-1.648-2.768-.88 1.056V52h-3.04zm12.12.192c-.852 0-1.551-.235-2.095-.704-.544-.48-.816-1.147-.816-2 0-.875.304-1.547.912-2.016.608-.47 1.434-.704 2.48-.704.757 0 1.45.112 2.08.336v-.144c0-.939-.576-1.408-1.728-1.408-.779 0-1.573.16-2.384.48l-.624-2.144a9.112 9.112 0 013.504-.672c1.493 0 2.592.352 3.296 1.056.618.608.928 1.525.928 2.752V52h-3.008v-.896c-.65.725-1.499 1.088-2.544 1.088zm1.089-1.904c.448 0 .81-.128 1.088-.384.277-.267.416-.613.416-1.04v-.4a3.004 3.004 0 00-1.184-.224c-.438 0-.779.101-1.024.304-.246.192-.368.459-.368.8 0 .288.096.517.288.688.203.17.464.256.784.256zM90.296 52v-8.384l-1.889.432-.591-2.4 3.28-.928h2.255V52h-3.055zm13.726-1.456c-.95 1.12-2.203 1.68-3.76 1.68-1.558 0-2.811-.555-3.76-1.664-.94-1.12-1.408-2.507-1.408-4.16 0-1.632.48-3.008 1.44-4.128.96-1.13 2.213-1.696 3.76-1.696 1.557 0 2.805.56 3.744 1.68.949 1.12 1.424 2.501 1.424 4.144 0 1.632-.48 3.013-1.44 4.144zm-5.233-1.92c.385.565.886.848 1.505.848.618 0 1.114-.283 1.488-.848.373-.576.56-1.317.56-2.224 0-.896-.198-1.632-.592-2.208-.384-.576-.88-.864-1.488-.864-.62 0-1.115.283-1.489.848-.373.565-.56 1.307-.56 2.224 0 .907.193 1.648.577 2.224zM107.918 52l8.64-11.2h2.16l-8.64 11.2h-2.16zm11.216-.72c-.544.587-1.237.88-2.08.88s-1.536-.288-2.08-.864c-.533-.587-.8-1.307-.8-2.16 0-.843.267-1.552.8-2.128.533-.587 1.232-.88 2.096-.88.853 0 1.547.293 2.08.88.533.576.8 1.29.8 2.144 0 .832-.272 1.541-.816 2.128zm-2.736-1.232c.181.235.405.352.672.352s.485-.117.656-.352c.181-.235.272-.539.272-.912 0-.363-.091-.661-.272-.896a.794.794 0 00-.672-.352.808.808 0 00-.688.352c-.16.224-.24.528-.24.912 0 .352.091.65.272.896zm-6.832-3.376c-.853 0-1.547-.288-2.08-.864-.533-.587-.8-1.307-.8-2.16 0-.843.267-1.552.8-2.128.533-.587 1.232-.88 2.096-.88.853 0 1.547.293 2.08.88.533.576.8 1.29.8 2.144 0 .843-.272 1.557-.816 2.144-.544.576-1.237.864-2.08.864zm-.656-2.112c.181.235.405.352.672.352s.485-.117.656-.352c.181-.235.272-.539.272-.912 0-.352-.091-.645-.272-.88-.181-.245-.405-.368-.672-.368a.794.794 0 00-.672.352c-.171.235-.256.539-.256.912 0 .363.091.661.272.896zM28.708 59.568V66h-1.824v-2.46H24.64V66h-1.824v-6.432h1.824v2.472h2.244v-2.472h1.824zm3.455 6.552c-.632 0-1.16-.176-1.584-.528-.416-.352-.624-.84-.624-1.464 0-.68.232-1.192.696-1.536.472-.344 1.104-.516 1.896-.516.536 0 1.06.088 1.572.264v-.108c0-.784-.46-1.176-1.38-1.176-.552 0-1.144.116-1.776.348l-.456-1.392a6.144 6.144 0 012.496-.516c.968 0 1.692.24 2.172.72.464.464.696 1.148.696 2.052V66h-1.764v-.696c-.488.544-1.136.816-1.944.816zm.552-1.26c.424 0 .768-.104 1.032-.312.264-.216.396-.488.396-.816v-.324a2.728 2.728 0 00-1.164-.24c-.4 0-.712.08-.936.24-.216.152-.324.376-.324.672 0 .24.092.432.276.576.184.136.424.204.72.204zm13.964.312c-.664.648-1.492.972-2.484.972s-1.82-.32-2.484-.96c-.656-.648-.984-1.444-.984-2.388 0-.936.332-1.728.996-2.376.672-.648 1.504-.972 2.496-.972s1.816.324 2.472.972c.664.64.996 1.432.996 2.376 0 .936-.336 1.728-1.008 2.376zm-2.46-.6c.504 0 .908-.168 1.212-.504.304-.344.456-.768.456-1.272 0-.488-.16-.904-.48-1.248-.312-.352-.716-.528-1.212-.528-.504 0-.908.172-1.212.516-.304.336-.456.756-.456 1.26 0 .488.156.908.468 1.26.32.344.728.516 1.224.516zm7.992 0c.456 0 .828-.156 1.116-.468.288-.32.432-.716.432-1.188 0-.464-.152-.86-.456-1.188a1.44 1.44 0 00-1.116-.492c-.456 0-.828.164-1.116.492-.288.32-.432.716-.432 1.188 0 .464.148.856.444 1.176.304.32.68.48 1.128.48zm-.024 1.572c-1.088 0-1.92-.328-2.496-.984-.576-.664-.864-1.616-.864-2.856 0-.44.016-.828.048-1.164.032-.344.1-.708.204-1.092a3.49 3.49 0 01.444-.984c.192-.272.456-.516.792-.732a3.474 3.474 0 011.212-.456l3.444-.636.288 1.44-3.528.696c-.976.2-1.496.704-1.56 1.512.152-.264.432-.508.84-.732.408-.232.908-.348 1.5-.348.832 0 1.548.296 2.148.888.6.592.9 1.324.9 2.196 0 .904-.32 1.672-.96 2.304-.64.632-1.444.948-2.412.948zm4.672 1.776v-8.352h1.824v.924c.512-.696 1.18-1.044 2.004-1.044.8 0 1.488.3 2.064.9.576.6.864 1.416.864 2.448 0 1.024-.288 1.836-.864 2.436-.568.592-1.256.888-2.064.888-.8 0-1.468-.32-2.004-.96v2.76h-1.824zm2.244-3.84c.304.328.676.492 1.116.492.44 0 .812-.164 1.116-.492.304-.336.456-.772.456-1.308 0-.52-.152-.944-.456-1.272a1.448 1.448 0 00-1.116-.504c-.44 0-.812.168-1.116.504-.296.328-.444.76-.444 1.296 0 .52.148.948.444 1.284zm7.678 2.04c-.632 0-1.16-.176-1.584-.528-.416-.352-.624-.84-.624-1.464 0-.68.232-1.192.696-1.536.472-.344 1.104-.516 1.896-.516.536 0 1.06.088 1.572.264v-.108c0-.784-.46-1.176-1.38-1.176-.552 0-1.144.116-1.776.348l-.456-1.392a6.144 6.144 0 012.496-.516c.968 0 1.692.24 2.172.72.464.464.696 1.148.696 2.052V66h-1.764v-.696c-.488.544-1.136.816-1.944.816zm.552-1.26c.424 0 .768-.104 1.032-.312.264-.216.396-.488.396-.816v-.324a2.728 2.728 0 00-1.164-.24c-.4 0-.712.08-.936.24-.216.152-.324.376-.324.672 0 .24.092.432.276.576.184.136.424.204.72.204zm9.753-5.292v1.56h-1.908V66H73.33v-4.872h-1.908v-1.56h5.664zm6.888 0V66H82.15v-2.46h-2.244V66h-1.824v-6.432h1.824v2.472h2.244v-2.472h1.824zM85.605 66v-6.432h1.824v2.124h1.32c.776 0 1.396.18 1.86.54.472.36.708.888.708 1.584 0 .68-.22 1.216-.66 1.608-.432.384-1.036.576-1.812.576h-3.24zm2.964-2.928h-1.14v1.488h1.152c.6 0 .9-.256.9-.768a.64.64 0 00-.24-.528c-.152-.128-.376-.192-.672-.192zM92.17 66v-6.432h1.824V66H92.17zm9.444-6.432V66H99.85v-3.744L97.34 66h-1.716v-6.432h1.764v3.756l2.508-3.756h1.716zm-1.584-1.092c-.352.32-.804.48-1.356.48s-1.008-.16-1.368-.48c-.352-.32-.568-.768-.648-1.344l1.068-.192c.168.536.484.804.948.804.464 0 .78-.268.948-.804l1.068.192c-.08.576-.3 1.024-.66 1.344zm11.838 1.092v1.56h-1.908V66h-1.848v-4.872h-1.908v-1.56h5.664zm.996 8.352v-8.352h1.824v.924c.512-.696 1.18-1.044 2.004-1.044.8 0 1.488.3 2.064.9.576.6.864 1.416.864 2.448 0 1.024-.288 1.836-.864 2.436-.568.592-1.256.888-2.064.888-.8 0-1.468-.32-2.004-.96v2.76h-1.824zm2.244-3.84c.304.328.676.492 1.116.492.44 0 .812-.164 1.116-.492.304-.336.456-.772.456-1.308 0-.52-.152-.944-.456-1.272a1.448 1.448 0 00-1.116-.504c-.44 0-.812.168-1.116.504-.296.328-.444.76-.444 1.296 0 .52.148.948.444 1.284zm7.678 2.04c-.632 0-1.16-.176-1.584-.528-.416-.352-.624-.84-.624-1.464 0-.68.232-1.192.696-1.536.472-.344 1.104-.516 1.896-.516.536 0 1.06.088 1.572.264v-.108c0-.784-.46-1.176-1.38-1.176-.552 0-1.144.116-1.776.348l-.456-1.392a6.144 6.144 0 012.496-.516c.968 0 1.692.24 2.172.72.464.464.696 1.148.696 2.052V66h-1.764v-.696c-.488.544-1.136.816-1.944.816zm.552-1.26c.424 0 .768-.104 1.032-.312.264-.216.396-.488.396-.816v-.324a2.728 2.728 0 00-1.164-.24c-.4 0-.712.08-.936.24-.216.152-.324.376-.324.672 0 .24.092.432.276.576.184.136.424.204.72.204zm10.617-5.292V66h-1.824v-2.46h-2.244V66h-1.824v-6.432h1.824v2.472h2.244v-2.472h1.824zm4.668 6.576c-.96 0-1.76-.324-2.4-.972-.632-.648-.948-1.44-.948-2.376 0-.928.32-1.716.96-2.364.64-.656 1.444-.984 2.412-.984 1.032 0 1.884.376 2.556 1.128l-1.068 1.08c-.448-.424-.948-.636-1.5-.636-.448 0-.82.172-1.116.516-.296.344-.444.764-.444 1.26 0 .504.148.928.444 1.272.304.336.7.504 1.188.504.504 0 .996-.228 1.476-.684l1.068 1.08a3.917 3.917 0 01-1.128.876c-.4.2-.9.3-1.5.3zm10.119-5.124c-.24 0-.5.104-.78.312v2.94c.256.192.516.288.78.288.44 0 .776-.156 1.008-.468.24-.312.36-.744.36-1.296 0-.536-.12-.964-.36-1.284-.24-.328-.576-.492-1.008-.492zm-.78 6.9h-1.836v-2.352a1.668 1.668 0 01-.576.372 2.175 2.175 0 01-.792.144c-.776 0-1.404-.292-1.884-.876-.48-.584-.72-1.388-.72-2.412s.24-1.828.72-2.412c.48-.592 1.112-.888 1.896-.888.272 0 .532.06.78.18s.44.26.576.42V57.6h1.836v2.496c.136-.16.328-.3.576-.42.248-.12.508-.18.78-.18.784 0 1.416.296 1.896.888.48.584.72 1.388.72 2.412s-.24 1.828-.72 2.412c-.48.584-1.108.876-1.884.876-.28 0-.544-.048-.792-.144a1.668 1.668 0 01-.576-.372v2.352zm-2.616-6.9c-.432 0-.768.164-1.008.492-.24.32-.36.748-.36 1.284 0 .552.116.984.348 1.296.24.312.58.468 1.02.468.264 0 .524-.096.78-.288v-2.94c-.28-.208-.54-.312-.78-.312zm10.984 5.124c-.976 0-1.78-.308-2.412-.924-.632-.624-.948-1.432-.948-2.424 0-.936.3-1.728.9-2.376.6-.648 1.36-.972 2.28-.972 1.016 0 1.792.336 2.328 1.008.536.672.804 1.5.804 2.484 0 .096-.008.256-.024.48h-4.476c.088.408.268.72.54.936.272.216.616.324 1.032.324.568 0 1.088-.22 1.56-.66l1.044.924c-.648.8-1.524 1.2-2.628 1.2zm-1.572-3.864h2.748c-.056-.416-.204-.748-.444-.996-.232-.248-.536-.372-.912-.372-.368 0-.676.124-.924.372-.24.24-.396.572-.468.996zm5.883 5.64v-8.352h1.824v.924c.512-.696 1.18-1.044 2.004-1.044.8 0 1.488.3 2.064.9.576.6.864 1.416.864 2.448 0 1.024-.288 1.836-.864 2.436-.568.592-1.256.888-2.064.888-.8 0-1.468-.32-2.004-.96v2.76h-1.824zm2.244-3.84c.304.328.676.492 1.116.492.44 0 .812-.164 1.116-.492.304-.336.456-.772.456-1.308 0-.52-.152-.944-.456-1.272a1.448 1.448 0 00-1.116-.504c-.44 0-.812.168-1.116.504-.296.328-.444.76-.444 1.296 0 .52.148.948.444 1.284z" fill="#393939"/></g></svg>