<svg width="890" height="1824" fill="none" xmlns="http://www.w3.org/2000/svg"><path d="M1342.19 869.582c13.24 5.338 14.86 23.422 2.79 31.033l-268.61 169.355a22.47 22.47 0 00-8.66 10.13l-112.044 260.24c-5.828 13.54-24.758 14.25-31.584 1.19L797.113 1098.5a22.527 22.527 0 00-10.969-10.21L482.277 956.147c-13.433-5.842-14.173-24.617-1.24-31.497l283.898-151.043a22.502 22.502 0 0010.724-12.594l93.487-273.806c4.898-14.346 24.477-16.103 31.851-2.858l144.953 260.369a22.492 22.492 0 0011.24 9.923l285 114.941z" stroke="#fff" stroke-opacity=".3" stroke-width="5"/><path d="M1187.61 888.583c5.67 2.287 6.37 10.038 1.2 13.3l-175.35 110.547a12.553 12.553 0 00-4.81 5.63l-73.552 170.85c-2.498 5.8-10.611 6.1-13.536.5l-83.503-159.82a12.475 12.475 0 00-6.094-5.68l-198.511-86.324c-5.757-2.504-6.074-10.55-.532-13.499l185.735-98.817a12.502 12.502 0 005.958-6.996l61.527-180.204c2.1-6.149 10.491-6.901 13.651-1.225l95.241 171.077a12.5 12.5 0 006.246 5.513l186.33 75.148z" stroke="#fff" stroke-opacity=".6" stroke-width="5"/><path d="M1460.55 861.775c13.23 5.338 14.86 23.422 2.79 31.033l-346 218.142a22.517 22.517 0 00-8.67 10.14l-145.1 337.04c-5.828 13.53-24.759 14.24-31.584 1.18l-164.72-315.28a22.478 22.478 0 00-10.969-10.21L364.591 963.476c-13.434-5.841-14.173-24.617-1.241-31.497l366.471-194.975a22.498 22.498 0 0010.725-12.593l121.367-355.465c4.898-14.346 24.478-16.103 31.852-2.858l187.885 337.487a22.485 22.485 0 0011.24 9.922l367.66 148.278z" stroke="#fff" stroke-opacity=".2" stroke-width="5"/></svg>