<svg width="462" height="462" fill="none" xmlns="http://www.w3.org/2000/svg"><path d="M304.735 224.65c12.067 7.619 10.43 25.702-2.809 31.031l-36.345 14.629a22.505 22.505 0 00-10.34 8.422l-16.018 24.11c-8.156 12.277-26.908 9.589-31.286-4.486l-7.77-24.978a22.508 22.508 0 00-8.965-12.012l-33.174-22.215c-12.172-8.15-9.541-26.755 4.414-31.211l35.251-11.256a22.5 22.5 0 0012.805-10.472l13.055-23.401c7.386-13.238 26.964-11.464 31.849 2.887l9.493 27.885a22.494 22.494 0 009.287 11.774l30.553 19.293z" stroke="#fff" stroke-opacity=".3" stroke-width="5"/><path d="M281.214 230.569c5.171 3.266 4.47 11.015-1.204 13.299L251.36 255.4a12.506 12.506 0 00-5.745 4.679l-13.721 20.653c-3.495 5.261-11.532 4.109-13.408-1.923l-6.875-22.099a12.497 12.497 0 00-4.98-6.673l-26.413-17.687c-5.216-3.493-4.088-11.467 1.892-13.377l28.625-9.14a12.5 12.5 0 007.114-5.818l11.718-21.003c3.165-5.673 11.556-4.913 13.649 1.237l8.258 24.258a12.498 12.498 0 005.159 6.541l24.581 15.521z" stroke="#fff" stroke-opacity=".6" stroke-width="5"/><path d="M332.171 227.791c12.067 7.62 10.43 25.702-2.809 31.031l-56.104 22.583a22.494 22.494 0 00-10.34 8.422l-26.79 40.324c-8.156 12.277-26.908 9.588-31.286-4.486l-13.408-43.101a22.504 22.504 0 00-8.965-12.012l-51.704-34.623c-12.171-8.151-9.54-26.756 4.414-31.212l55.995-17.88a22.5 22.5 0 0012.805-10.471l22.843-40.945c7.385-13.238 26.964-11.464 31.849 2.887l16.115 47.338a22.501 22.501 0 009.286 11.774l48.099 30.371z" stroke="#fff" stroke-opacity=".2" stroke-width="5"/></svg>