<svg width="126" height="160" fill="none" xmlns="http://www.w3.org/2000/svg"><mask id="a" style="mask-type:alpha" maskUnits="userSpaceOnUse" x="0" y="0" width="126" height="160"><path d="M0 5a5 5 0 015-5h116a5 5 0 015 5v155H0V5z" fill="#fff"/></mask><g mask="url(#a)" stroke="#FAED00" stroke-width="3"><path d="M110.556-26.133l25.156 30.13a21.5 21.5 0 0010.699 6.922l32.151 9.016c13.314 3.733 16.331 21.247 5.033 29.22L158.594 66.8a21.5 21.5 0 00-8.283 11.685L139.37 116.96c-4.236 14.895-23.805 18.305-32.829 5.72L84.935 92.549a21.5 21.5 0 00-13.288-8.56L45.296 78.76c-15.72-3.119-20.308-23.387-7.465-32.972l23.664-17.66a21.5 21.5 0 007.972-11.907l8.964-35.078c3.736-14.617 22.456-18.857 32.125-7.276z" stroke-opacity=".6"/><path d="M106.064-1.617l19.823 23.742a11.502 11.502 0 005.723 3.703l23.914 6.706c6.894 1.933 8.456 11 2.607 15.129L139.189 61.03a11.498 11.498 0 00-4.43 6.25l-8.708 30.622c-1.946 6.844-10.937 8.41-15.084 2.628L93.43 76.073a11.5 11.5 0 00-7.108-4.578l-23.633-4.69c-7.222-1.433-9.33-10.745-3.43-15.15l20.572-15.352a11.5 11.5 0 004.264-6.369l7.21-28.208c1.715-6.716 10.317-8.664 14.759-3.343z" stroke-opacity=".8"/><path d="M105.092-53.226l38.819 46.494A21.498 21.498 0 00154.609.19l46.694 13.093c15.003 4.208 18.403 23.943 5.672 32.928l-36.944 26.074a21.499 21.499 0 00-8.282 11.685l-17.046 59.944c-4.236 14.895-23.805 18.305-32.829 5.72l-34.307-47.843a21.499 21.499 0 00-13.288-8.56l-46.072-9.142C2.487 80.969-2.101 60.7 10.742 51.116l40.147-29.96A21.5 21.5 0 0058.86 9.247L72.967-45.95c3.735-14.617 22.455-18.857 32.125-7.276z" stroke-opacity=".2"/></g></svg>