<svg width="200" height="343" fill="none" xmlns="http://www.w3.org/2000/svg"><path d="M175.949 87.093c7.857-11.914 25.903-9.92 30.97 3.422l18.639 49.086a22.495 22.495 0 008.215 10.504l33.8 23.431c12.113 8.398 9.054 27.093-5.104 31.192l-36.534 10.578a22.501 22.501 0 00-12.187 8.726l-30.858 44.167c-8.39 12.008-26.939 9.009-31.118-5.03l-14.444-48.526a22.494 22.494 0 00-10.217-13.009l-33.993-19.856c-13.09-7.646-10.928-27.185 3.516-31.786l40.319-12.842a22.498 22.498 0 0011.956-9.052l27.04-41.005z" stroke="#fff" stroke-opacity=".6" stroke-width="5"/><path d="M180.558 117.02c3.367-5.106 11.102-4.252 13.273 1.466l13.962 36.769a12.496 12.496 0 004.564 5.835l26.721 18.524c5.191 3.599 3.88 11.611-2.187 13.368l-29.46 8.529a12.503 12.503 0 00-6.77 4.848l-23.271 33.307c-3.595 5.146-11.545 3.861-13.336-2.156l-11.036-37.076a12.502 12.502 0 00-5.676-7.227l-27.646-16.149c-5.61-3.276-4.684-11.65 1.507-13.622l32.18-10.25a12.496 12.496 0 006.642-5.029l20.533-31.137z" stroke="#fff" stroke-opacity=".8" stroke-width="5"/><path d="M180.213 55.406c7.857-11.914 25.903-9.92 30.97 3.422l27.393 72.141a22.502 22.502 0 008.216 10.504l52.321 36.271c12.113 8.398 9.054 27.093-5.104 31.192l-57.641 16.689a22.5 22.5 0 00-12.187 8.725l-45.645 65.332c-8.39 12.009-26.939 9.01-31.118-5.03l-21.637-72.689a22.501 22.501 0 00-10.217-13.009l-54.076-31.587c-13.09-7.646-10.929-27.185 3.515-31.785l62.989-20.063a22.5 22.5 0 0011.955-9.052l40.266-61.06z" stroke="#fff" stroke-opacity=".2" stroke-width="5"/></svg>