<svg width="174" height="279" fill="none" xmlns="http://www.w3.org/2000/svg"><path d="M8.75 85.193c3.534-13.827 21.242-17.838 30.388-6.883l17.92 21.463a22.501 22.501 0 0011.197 7.244l18 5.048c14.192 3.98 17.408 22.648 5.366 31.148l-13.205 9.319a22.503 22.503 0 00-8.668 12.229l-7.708 27.106c-4.007 14.09-22.518 17.315-31.054 5.411l-14.88-20.752a22.499 22.499 0 00-13.907-8.959l-15.906-3.156c-14.87-2.95-19.21-22.123-7.061-31.19l14.935-11.146a22.496 22.496 0 008.342-12.461L8.75 85.193z" stroke="#fff" stroke-opacity=".6" stroke-width="5"/><path d="M20.55 100.499c1.515-5.926 9.104-7.645 13.024-2.95l15.237 18.25a12.5 12.5 0 006.22 4.024l17.62 4.941c6.082 1.706 7.46 9.707 2.3 13.349l-13.734 9.693a12.497 12.497 0 00-4.816 6.793l-6.659 23.417c-1.717 6.038-9.65 7.421-13.308 2.319l-13.276-18.514a12.504 12.504 0 00-7.725-4.977l-17.015-3.376c-6.372-1.264-8.233-9.481-3.026-13.367l15.04-11.224a12.5 12.5 0 004.635-6.923l5.483-21.455z" stroke="#fff" stroke-opacity=".8" stroke-width="5"/><path d="M4.016 61.717c3.533-13.826 21.241-17.837 30.388-6.882l29.759 35.642a22.5 22.5 0 0011.196 7.244l34.254 9.605c14.192 3.98 17.408 22.649 5.366 31.148l-26.653 18.811a22.496 22.496 0 00-8.667 12.228L66.66 215.22c-4.007 14.09-22.518 17.316-31.054 5.411L9.722 184.533a22.497 22.497 0 00-13.906-8.958l-32.995-6.547c-14.869-2.951-19.21-22.124-7.06-31.19l29.216-21.804a22.503 22.503 0 008.342-12.461L4.016 61.717z" stroke="#fff" stroke-opacity=".2" stroke-width="5"/></svg>