<svg width="207" height="230" fill="none" xmlns="http://www.w3.org/2000/svg"><path d="M69.498 76.99c3.534-13.826 21.242-17.837 30.389-6.882l9.674 11.587a22.502 22.502 0 0011.197 7.244l6.679 1.873c14.192 3.98 17.408 22.649 5.366 31.148l-3.839 2.709a22.504 22.504 0 00-8.668 12.229l-4.024 14.15c-4.007 14.09-22.518 17.315-31.054 5.411l-7.216-10.064a22.501 22.501 0 00-13.906-8.958l-4.005-.795c-14.87-2.95-19.21-22.123-7.06-31.19l4.987-3.722a22.501 22.501 0 008.342-12.461l3.138-12.279z" stroke="#fff" stroke-opacity=".6" stroke-width="5"/><path d="M80.076 86.282c1.514-5.925 9.103-7.644 13.023-2.95l10.013 11.993a12.497 12.497 0 006.22 4.024l10.445 2.929c6.082 1.706 7.46 9.706 2.299 13.349l-7.797 5.503a12.504 12.504 0 00-4.816 6.794l-4.324 15.206c-1.717 6.039-9.65 7.421-13.31 2.319l-8.417-11.74a12.504 12.504 0 00-7.726-4.977l-9.472-1.879c-6.373-1.265-8.233-9.482-3.026-13.367l8.737-6.521a12.498 12.498 0 004.634-6.922l3.517-13.76z" stroke="#fff" stroke-opacity=".8" stroke-width="5"/><path d="M65.595 57.638C69.13 43.811 86.837 39.8 95.984 50.755l19.434 23.276a22.495 22.495 0 0011.196 7.244l20.078 5.63c14.192 3.98 17.408 22.649 5.366 31.148l-14.924 10.534a22.502 22.502 0 00-8.668 12.228l-8.385 29.485c-4.006 14.09-22.518 17.315-31.054 5.411L72.74 152.996a22.501 22.501 0 00-13.906-8.958l-18.091-3.59c-14.87-2.95-19.21-22.123-7.06-31.19l16.76-12.508a22.5 22.5 0 008.342-12.461l6.811-26.651z" stroke="#fff" stroke-opacity=".2" stroke-width="5"/></svg>