<svg width="581" height="927" fill="none" xmlns="http://www.w3.org/2000/svg"><path d="M-49.858 130.92c1.73-14.166 18.778-20.416 29.255-10.725l153.74 142.211a22.498 22.498 0 0012.033 5.748l182.605 26.617c14.585 2.126 20.17 20.227 9.318 30.201L206.139 445.329a22.493 22.493 0 00-7.027 13.239L166.854 674.34c-2.166 14.488-20.11 20.062-30.103 9.351L-7.228 529.371a22.5 22.5 0 00-14.94-7.1l-186.942-12.586c-15.125-1.018-21.89-19.476-11.005-30.026l139.091-134.813a22.503 22.503 0 006.675-13.429l24.491-200.497z" stroke="#fff" stroke-opacity=".3" stroke-width="5"/><path d="M-8.207 226.495c.741-6.071 8.047-8.75 12.537-4.597l101.873 94.233a12.49 12.49 0 006.685 3.193l122.103 17.798c6.251.912 8.644 8.669 3.993 12.944l-87.821 80.714a12.5 12.5 0 00-3.904 7.356l-21.402 143.152c-.928 6.209-8.618 8.598-12.901 4.008l-95.743-102.62a12.499 12.499 0 00-8.3-3.944l-125.52-8.451c-6.482-.436-9.381-8.347-4.716-12.868l93.139-90.275a12.503 12.503 0 003.708-7.46l16.269-133.183z" stroke="#fff" stroke-opacity=".6" stroke-width="5"/><path d="M-76.657 52.078c1.73-14.166 18.777-20.416 29.254-10.725l200.89 185.826a22.507 22.507 0 0012.033 5.747l240.69 35.084c14.586 2.126 20.17 20.228 9.318 30.202L242.436 457.296a22.496 22.496 0 00-7.027 13.239l-42.201 282.279c-2.166 14.488-20.11 20.062-30.103 9.351L-25.668 559.833a22.5 22.5 0 00-14.94-7.1l-247.383-16.655c-15.125-1.018-21.89-19.476-11.005-30.026l183.585-177.939a22.503 22.503 0 006.675-13.428l32.079-262.607z" stroke="#fff" stroke-opacity=".2" stroke-width="5"/></svg>