<svg width="553" height="689" fill="none" xmlns="http://www.w3.org/2000/svg"><path d="M388.876 139.954l50.972 134.235a22.502 22.502 0 008.216 10.504l102.206 70.853c12.114 8.398 9.055 27.093-5.103 31.192l-114.491 33.149a22.5 22.5 0 00-12.187 8.725l-85.472 122.337c-8.39 12.008-26.939 9.01-31.119-5.03l-41.009-137.771a22.5 22.5 0 00-10.217-13.009l-108.167-63.182c-13.09-7.646-10.929-27.185 3.515-31.786l124.044-39.509a22.5 22.5 0 0011.955-9.052l75.887-115.078c7.857-11.914 25.904-9.92 30.97 3.422z" stroke="#fff" stroke-opacity=".6" stroke-width="5"/><path d="M370.061 210.99l34.451 90.728a12.5 12.5 0 004.565 5.836l70.071 48.576c5.192 3.599 3.881 11.611-2.187 13.368l-78.862 22.833a12.496 12.496 0 00-6.77 4.847l-57.88 82.844c-3.596 5.146-11.545 3.861-13.337-2.156l-27.87-93.632a12.502 12.502 0 00-5.676-7.227l-74.652-43.605c-5.609-3.276-4.683-11.65 1.507-13.622l85.238-27.149a12.502 12.502 0 006.641-5.029l51.488-78.078c3.367-5.106 11.102-4.252 13.273 1.466z" stroke="#fff" stroke-opacity=".8" stroke-width="5"/><path d="M397.111 78.757l67.879 178.76a22.508 22.508 0 008.216 10.504l137.978 95.652c12.113 8.397 9.054 27.092-5.104 31.192l-155.255 44.95a22.506 22.506 0 00-12.187 8.726L324.607 611.754c-8.39 12.008-26.939 9.009-31.118-5.031l-54.901-184.437a22.5 22.5 0 00-10.217-13.01L81.416 323.438c-13.09-7.645-10.928-27.185 3.516-31.785l167.825-53.454a22.509 22.509 0 0011.955-9.052L366.141 75.335c7.857-11.914 25.904-9.92 30.97 3.422z" stroke="#fff" stroke-opacity=".2" stroke-width="5"/></svg>