<svg width="298" height="298" fill="none" xmlns="http://www.w3.org/2000/svg"><path d="M152.056 81.366l20.993 25.143a22.504 22.504 0 0011.196 7.244l22.218 6.23c14.192 3.98 17.408 22.648 5.366 31.148l-16.695 11.782a22.497 22.497 0 00-8.667 12.229l-9.081 31.933c-4.007 14.09-22.518 17.315-31.055 5.411l-17.736-24.735a22.499 22.499 0 00-13.906-8.958l-20.34-4.036c-14.87-2.95-19.21-22.124-7.061-31.19l18.641-13.912a22.5 22.5 0 008.342-12.461l7.397-28.945c3.534-13.827 21.242-17.838 30.388-6.883z" stroke="#fff" stroke-opacity=".6" stroke-width="5"/><path d="M146.947 102.845l17.185 20.582a12.5 12.5 0 006.22 4.024l20.292 5.691c6.082 1.705 7.46 9.706 2.299 13.349l-15.944 11.253a12.503 12.503 0 00-4.816 6.793l-7.528 26.476c-1.718 6.039-9.651 7.421-13.309 2.319l-15.085-21.037a12.5 12.5 0 00-7.726-4.977l-19.824-3.934c-6.373-1.264-8.233-9.481-3.027-13.367l17.389-12.977a12.502 12.502 0 004.635-6.923l6.216-24.322c1.514-5.926 9.103-7.645 13.023-2.95z" stroke="#fff" stroke-opacity=".8" stroke-width="5"/><path d="M147.012 56.355l33.605 40.249a22.507 22.507 0 0011.197 7.244l39.535 11.086c14.192 3.98 17.408 22.649 5.366 31.148l-31.022 21.895a22.498 22.498 0 00-8.668 12.228l-14.716 51.751c-4.007 14.09-22.518 17.316-31.054 5.411l-29.461-41.084a22.499 22.499 0 00-13.906-8.959l-38.547-7.648c-14.869-2.951-19.21-22.124-7.06-31.191l33.856-25.267a22.496 22.496 0 008.342-12.46l12.145-47.52c3.533-13.828 21.242-17.838 30.388-6.883z" stroke="#fff" stroke-opacity=".2" stroke-width="5"/></svg>